<svg xmlns="http://www.w3.org/2000/svg" xmlns:xlink="http://www.w3.org/1999/xlink" version="1.1" width="256" height="256" viewBox="0 0 256 256" xml:space="preserve">

<defs>
</defs>
<g style="stroke: none; stroke-width: 0; stroke-dasharray: none; stroke-linecap: butt; stroke-linejoin: miter; stroke-miterlimit: 10; fill: none; fill-rule: nonzero; opacity: 1;" transform="translate(1.4065934065934016 1.4065934065934016) scale(2.81 2.81)" >
	<path d="M 87.762 7.716 c 0.364 -1.84 -0.02 -3.651 -1.081 -5.1 c -2.18 -2.975 -6.554 -3.488 -9.752 -1.147 L 46.036 24.092 l 0.15 -7.928 c 0.035 -1.808 -0.652 -3.481 -1.935 -4.712 c -1.329 -1.275 -3.109 -1.915 -5.032 -1.798 c -3.826 0.231 -6.997 3.461 -7.069 7.199 L 31.599 45.93 c -0.117 5.206 1.397 10.112 4.379 14.184 c 4.567 6.236 11.806 9.487 19.373 9.487 c 5.594 -0.001 11.367 -1.778 16.368 -5.44 l 12.964 -9.494 c 1.531 -1.121 2.571 -2.734 2.93 -4.543 c 0.364 -1.84 -0.02 -3.651 -1.081 -5.1 c -1.078 -1.472 -2.695 -2.34 -4.441 -2.559 l 0.234 -0.171 c 3.198 -2.341 4.028 -6.667 1.85 -9.643 c -1.284 -1.753 -3.331 -2.644 -5.45 -2.608 c 1.343 -2.307 1.353 -5.174 -0.228 -7.334 c -1.078 -1.473 -2.695 -2.34 -4.44 -2.56 l 10.775 -7.891 C 86.363 11.138 87.403 9.525 87.762 7.716 z" style="stroke: none; stroke-width: 1; stroke-dasharray: none; stroke-linecap: butt; stroke-linejoin: miter; stroke-miterlimit: 10; fill: rgb(0,0,0); fill-rule: nonzero; opacity: 1;" transform=" matrix(1 0 0 1 0 0) " stroke-linecap="round" />
	<path d="M 10.949 84.03 c -0.31 0 -0.614 -0.143 -0.81 -0.412 c -0.325 -0.446 -0.226 -1.072 0.221 -1.396 L 33.585 65.34 c 0.446 -0.325 1.073 -0.227 1.397 0.221 c 0.325 0.446 0.226 1.072 -0.221 1.396 L 11.535 83.839 C 11.358 83.968 11.152 84.03 10.949 84.03 z" style="stroke: none; stroke-width: 1; stroke-dasharray: none; stroke-linecap: butt; stroke-linejoin: miter; stroke-miterlimit: 10; fill: rgb(0,0,0); fill-rule: nonzero; opacity: 1;" transform=" matrix(1 0 0 1 0 0) " stroke-linecap="round" />
	<path d="M 20.981 90 c -0.31 0 -0.614 -0.143 -0.81 -0.412 c -0.325 -0.446 -0.226 -1.072 0.221 -1.396 L 43.617 71.31 c 0.447 -0.325 1.072 -0.227 1.397 0.221 c 0.325 0.446 0.226 1.072 -0.221 1.396 L 21.568 89.809 C 21.391 89.938 21.185 90 20.981 90 z" style="stroke: none; stroke-width: 1; stroke-dasharray: none; stroke-linecap: butt; stroke-linejoin: miter; stroke-miterlimit: 10; fill: rgb(0,0,0); fill-rule: nonzero; opacity: 1;" transform=" matrix(1 0 0 1 0 0) " stroke-linecap="round" />
	<path d="M 4.641 75.353 c -0.31 0 -0.614 -0.143 -0.81 -0.412 c -0.325 -0.446 -0.226 -1.072 0.221 -1.396 l 23.225 -16.882 c 0.447 -0.325 1.072 -0.226 1.397 0.221 c 0.325 0.446 0.226 1.072 -0.221 1.396 L 5.228 75.162 C 5.051 75.29 4.845 75.353 4.641 75.353 z" style="stroke: none; stroke-width: 1; stroke-dasharray: none; stroke-linecap: butt; stroke-linejoin: miter; stroke-miterlimit: 10; fill: rgb(0,0,0); fill-rule: nonzero; opacity: 1;" transform=" matrix(1 0 0 1 0 0) " stroke-linecap="round" />
	<path d="M 3.106 63.065 c -0.31 0 -0.614 -0.143 -0.81 -0.412 c -0.325 -0.446 -0.226 -1.072 0.221 -1.396 l 23.225 -16.882 c 0.447 -0.325 1.073 -0.225 1.397 0.221 c 0.325 0.447 0.226 1.072 -0.221 1.397 L 3.692 62.874 C 3.515 63.003 3.309 63.065 3.106 63.065 z" style="stroke: none; stroke-width: 1; stroke-dasharray: none; stroke-linecap: butt; stroke-linejoin: miter; stroke-miterlimit: 10; fill: rgb(0,0,0); fill-rule: nonzero; opacity: 1;" transform=" matrix(1 0 0 1 0 0) " stroke-linecap="round" />
</g>
</svg>