<svg xmlns="http://www.w3.org/2000/svg" viewBox="0 0 48 48"><defs><style>.cls-1{fill:#fff;}.cls-2{fill:#65b1fc;}.cls-3{fill:#256494;}</style></defs><title>10-Computer Game</title><g id="_10-Computer_Game" data-name="10-Computer Game"><rect class="cls-1" x="6" y="6" width="36" height="24"/><rect class="cls-2" x="17" y="35" width="14" height="8"/><path class="cls-1" d="M34,43v3a1,1,0,0,1-1,1H15a1,1,0,0,1-1-1V43H34Z"/><path class="cls-2" d="M47,3V33a2.006,2.006,0,0,1-2,2H3a2.006,2.006,0,0,1-2-2V3A2.006,2.006,0,0,1,3,1H45A2.006,2.006,0,0,1,47,3ZM42,30V6H6V30Z"/><path class="cls-1" d="M34,37v1H14V37a2.938,2.938,0,0,1,3-3h2a2.938,2.938,0,0,0,3-3V29h4v2a2.938,2.938,0,0,0,3,3h2A2.938,2.938,0,0,1,34,37Z"/><rect class="cls-1" x="22" y="23" width="4" height="3"/><polygon class="cls-1" points="28 6 28 7 20 7 20 6 20 5 24 1 28 5 28 6"/><polygon class="cls-1" points="35 17 35 20 28 20 28 8.94 35 17"/><polygon class="cls-1" points="20 8.94 20 20 13 20 13 17 20 8.94"/><path class="cls-2" d="M28,20v2a1,1,0,0,1-1,1H21a1,1,0,0,1-1-1V7h8V20Z"/><path class="cls-3" d="M35,43a1,1,0,0,0-1-1H32V39H30v3H18V39H16v3H14a1,1,0,0,0-1,1v3H11v2H37V46H35ZM15,46V44H33v2Z"/><path class="cls-3" d="M45,0H30V2H45a1,1,0,0,1,1,1V33a1,1,0,0,1-1,1H38v2h7a3,3,0,0,0,3-3V3A3,3,0,0,0,45,0Z"/><path class="cls-3" d="M2,33V3A1,1,0,0,1,3,2H18V0H3A3,3,0,0,0,0,3V33a3,3,0,0,0,3,3h7V34H3A1,1,0,0,1,2,33Z"/><path class="cls-3" d="M38,29v2h4a1,1,0,0,0,1-1V6a1,1,0,0,0-1-1H32V7h9V29Z"/><path class="cls-3" d="M7,7h9V5H6A1,1,0,0,0,5,6V30a1,1,0,0,0,1,1h4V29H7Z"/><path class="cls-3" d="M14,9H10a1,1,0,0,0-1,1v4h2V11h3Z"/><path class="cls-3" d="M12.245,16.344A1,1,0,0,0,12,17v3a1,1,0,0,0,1,1h6v1a2,2,0,0,0,2,2v2a1,1,0,0,0,1,1h4a1,1,0,0,0,1-1V24a2,2,0,0,0,2-2V21h6a1,1,0,0,0,1-1V17a1,1,0,0,0-.245-.656L29,8.564V5a1,1,0,0,0-.293-.707l-4-4a1,1,0,0,0-1.414,0l-4,4A1,1,0,0,0,19,5V8.564ZM14,19V17.374l5-5.759V19Zm11,6H23V24h2Zm1-3H21V8h6V22Zm8-4.626V19H29V11.615ZM24,2.414l3,3V6H21V5.414Z"/><path class="cls-3" d="M15,37a1.882,1.882,0,0,1,2-2h2a3.887,3.887,0,0,0,4-4V29H21v2a1.883,1.883,0,0,1-2,2H17a3.888,3.888,0,0,0-4,4v1h2Z"/><path class="cls-3" d="M35,38V37a3.888,3.888,0,0,0-4-4H29a1.884,1.884,0,0,1-2-2V29H25v2a3.887,3.887,0,0,0,4,4h2a1.882,1.882,0,0,1,2,2v1Z"/><rect class="cls-3" x="23" y="10" width="2" height="10"/><rect class="cls-3" x="16" y="27" width="2" height="2"/><rect class="cls-3" x="12" y="29" width="2" height="2"/><rect class="cls-3" x="30" y="27" width="2" height="2"/><rect class="cls-3" x="34" y="29" width="2" height="2"/></g></svg>